<mxfile host="app.diagrams.net" agent="Mozilla/5.0 (Windows NT 10.0; Win64; x64) AppleWebKit/537.36 (KHTML, like Gecko) Chrome/129.0.0.0 Safari/537.36 Edg/129.0.0.0" version="24.7.14">
  <diagram name="1 oldal" id="HbJ8YFNdj8QinXffYp50">
    <mxGraphModel dx="3474" dy="1527" grid="1" gridSize="10" guides="1" tooltips="1" connect="1" arrows="1" fold="1" page="1" pageScale="1" pageWidth="827" pageHeight="1169" math="0" shadow="0">
      <root>
        <mxCell id="0" />
        <mxCell id="1" parent="0" />
        <mxCell id="vLfpw1LvQMj7YOOkY1lj-6" value="Etterem" style="ellipse;shape=doubleEllipse;margin=3;whiteSpace=wrap;html=1;align=center;" vertex="1" parent="1">
          <mxGeometry x="220" y="197.5" width="90" height="40" as="geometry" />
        </mxCell>
        <mxCell id="vLfpw1LvQMj7YOOkY1lj-8" value="" style="endArrow=none;html=1;rounded=0;entryX=0;entryY=1;entryDx=0;entryDy=0;" edge="1" parent="1" target="vLfpw1LvQMj7YOOkY1lj-6">
          <mxGeometry width="50" height="50" relative="1" as="geometry">
            <mxPoint x="180" y="277.5" as="sourcePoint" />
            <mxPoint x="230" y="257.5" as="targetPoint" />
          </mxGeometry>
        </mxCell>
        <mxCell id="vLfpw1LvQMj7YOOkY1lj-9" value="Nev" style="ellipse;whiteSpace=wrap;html=1;" vertex="1" parent="1">
          <mxGeometry x="140" y="277.5" width="70" height="30" as="geometry" />
        </mxCell>
        <mxCell id="vLfpw1LvQMj7YOOkY1lj-10" value="" style="endArrow=none;html=1;rounded=0;entryX=0.5;entryY=1;entryDx=0;entryDy=0;" edge="1" parent="1" target="vLfpw1LvQMj7YOOkY1lj-6">
          <mxGeometry width="50" height="50" relative="1" as="geometry">
            <mxPoint x="260" y="277.5" as="sourcePoint" />
            <mxPoint x="370" y="317.5" as="targetPoint" />
          </mxGeometry>
        </mxCell>
        <mxCell id="vLfpw1LvQMj7YOOkY1lj-11" value="Cim" style="ellipse;whiteSpace=wrap;html=1;" vertex="1" parent="1">
          <mxGeometry x="220" y="277.5" width="70" height="30" as="geometry" />
        </mxCell>
        <mxCell id="vLfpw1LvQMj7YOOkY1lj-12" value="" style="endArrow=none;html=1;rounded=0;entryX=1;entryY=1;entryDx=0;entryDy=0;exitX=0.5;exitY=0;exitDx=0;exitDy=0;" edge="1" parent="1" source="vLfpw1LvQMj7YOOkY1lj-13" target="vLfpw1LvQMj7YOOkY1lj-6">
          <mxGeometry width="50" height="50" relative="1" as="geometry">
            <mxPoint x="330" y="277.5" as="sourcePoint" />
            <mxPoint x="440" y="327.5" as="targetPoint" />
          </mxGeometry>
        </mxCell>
        <mxCell id="vLfpw1LvQMj7YOOkY1lj-13" value="Csillag" style="ellipse;whiteSpace=wrap;html=1;" vertex="1" parent="1">
          <mxGeometry x="300" y="277.5" width="70" height="30" as="geometry" />
        </mxCell>
        <mxCell id="vLfpw1LvQMj7YOOkY1lj-14" value="" style="endArrow=none;html=1;rounded=0;entryX=0;entryY=0.5;entryDx=0;entryDy=0;exitX=1;exitY=0.5;exitDx=0;exitDy=0;" edge="1" parent="1" source="vLfpw1LvQMj7YOOkY1lj-15" target="vLfpw1LvQMj7YOOkY1lj-6">
          <mxGeometry width="50" height="50" relative="1" as="geometry">
            <mxPoint x="100" y="222.5" as="sourcePoint" />
            <mxPoint x="440" y="327.5" as="targetPoint" />
          </mxGeometry>
        </mxCell>
        <mxCell id="vLfpw1LvQMj7YOOkY1lj-15" value="&lt;u&gt;Ekod&lt;/u&gt;" style="rhombus;whiteSpace=wrap;html=1;" vertex="1" parent="1">
          <mxGeometry x="70" y="217.5" width="60" height="65" as="geometry" />
        </mxCell>
        <mxCell id="vLfpw1LvQMj7YOOkY1lj-16" value="" style="endArrow=none;html=1;rounded=0;entryX=0.5;entryY=1;entryDx=0;entryDy=0;" edge="1" parent="1" target="vLfpw1LvQMj7YOOkY1lj-9">
          <mxGeometry width="50" height="50" relative="1" as="geometry">
            <mxPoint x="175" y="337.5" as="sourcePoint" />
            <mxPoint x="100" y="327.5" as="targetPoint" />
          </mxGeometry>
        </mxCell>
        <mxCell id="vLfpw1LvQMj7YOOkY1lj-17" value="" style="endArrow=none;html=1;rounded=0;entryX=0.5;entryY=1;entryDx=0;entryDy=0;" edge="1" parent="1" target="vLfpw1LvQMj7YOOkY1lj-13">
          <mxGeometry width="50" height="50" relative="1" as="geometry">
            <mxPoint x="335" y="337.5" as="sourcePoint" />
            <mxPoint x="100" y="327.5" as="targetPoint" />
          </mxGeometry>
        </mxCell>
        <mxCell id="vLfpw1LvQMj7YOOkY1lj-18" value="" style="rounded=0;whiteSpace=wrap;html=1;" vertex="1" parent="1">
          <mxGeometry x="160" y="337.5" width="30" height="40" as="geometry" />
        </mxCell>
        <mxCell id="vLfpw1LvQMj7YOOkY1lj-19" value="" style="rounded=0;whiteSpace=wrap;html=1;" vertex="1" parent="1">
          <mxGeometry x="320" y="337.5" width="30" height="40" as="geometry" />
        </mxCell>
        <mxCell id="vLfpw1LvQMj7YOOkY1lj-22" value="" style="endArrow=none;html=1;rounded=0;entryX=0;entryY=1;entryDx=0;entryDy=0;" edge="1" parent="1" target="vLfpw1LvQMj7YOOkY1lj-11">
          <mxGeometry width="50" height="50" relative="1" as="geometry">
            <mxPoint x="180" y="417.5" as="sourcePoint" />
            <mxPoint x="150" y="347.5" as="targetPoint" />
          </mxGeometry>
        </mxCell>
        <mxCell id="vLfpw1LvQMj7YOOkY1lj-23" value="" style="endArrow=none;html=1;rounded=0;entryX=0.5;entryY=1;entryDx=0;entryDy=0;" edge="1" parent="1" target="vLfpw1LvQMj7YOOkY1lj-11">
          <mxGeometry width="50" height="50" relative="1" as="geometry">
            <mxPoint x="255" y="417.5" as="sourcePoint" />
            <mxPoint x="150" y="347.5" as="targetPoint" />
          </mxGeometry>
        </mxCell>
        <mxCell id="vLfpw1LvQMj7YOOkY1lj-24" value="" style="endArrow=none;html=1;rounded=0;entryX=1;entryY=1;entryDx=0;entryDy=0;" edge="1" parent="1" target="vLfpw1LvQMj7YOOkY1lj-11">
          <mxGeometry width="50" height="50" relative="1" as="geometry">
            <mxPoint x="330" y="417.5" as="sourcePoint" />
            <mxPoint x="150" y="347.5" as="targetPoint" />
          </mxGeometry>
        </mxCell>
        <mxCell id="vLfpw1LvQMj7YOOkY1lj-25" value="Varos" style="ellipse;whiteSpace=wrap;html=1;" vertex="1" parent="1">
          <mxGeometry x="140" y="417.5" width="70" height="30" as="geometry" />
        </mxCell>
        <mxCell id="vLfpw1LvQMj7YOOkY1lj-26" value="Utca" style="ellipse;whiteSpace=wrap;html=1;" vertex="1" parent="1">
          <mxGeometry x="220" y="417.5" width="70" height="30" as="geometry" />
        </mxCell>
        <mxCell id="vLfpw1LvQMj7YOOkY1lj-27" value="Hazszam" style="ellipse;whiteSpace=wrap;html=1;" vertex="1" parent="1">
          <mxGeometry x="300" y="417.5" width="70" height="30" as="geometry" />
        </mxCell>
        <mxCell id="vLfpw1LvQMj7YOOkY1lj-29" value="Foszakacs" style="ellipse;shape=doubleEllipse;margin=3;whiteSpace=wrap;html=1;align=center;" vertex="1" parent="1">
          <mxGeometry x="541.5" y="197.5" width="100" height="40" as="geometry" />
        </mxCell>
        <mxCell id="vLfpw1LvQMj7YOOkY1lj-30" value="" style="endArrow=none;html=1;rounded=0;exitX=1;exitY=0.5;exitDx=0;exitDy=0;" edge="1" parent="1" source="vLfpw1LvQMj7YOOkY1lj-31">
          <mxGeometry width="50" height="50" relative="1" as="geometry">
            <mxPoint x="491.5" y="275" as="sourcePoint" />
            <mxPoint x="551.5" y="230" as="targetPoint" />
          </mxGeometry>
        </mxCell>
        <mxCell id="vLfpw1LvQMj7YOOkY1lj-31" value="&lt;u&gt;Fkod&lt;/u&gt;" style="rhombus;whiteSpace=wrap;html=1;" vertex="1" parent="1">
          <mxGeometry x="400" y="215" width="70" height="70" as="geometry" />
        </mxCell>
        <mxCell id="vLfpw1LvQMj7YOOkY1lj-32" value="" style="endArrow=none;html=1;rounded=0;entryX=1;entryY=1;entryDx=0;entryDy=0;exitX=0;exitY=0.5;exitDx=0;exitDy=0;" edge="1" parent="1" source="vLfpw1LvQMj7YOOkY1lj-33" target="vLfpw1LvQMj7YOOkY1lj-29">
          <mxGeometry width="50" height="50" relative="1" as="geometry">
            <mxPoint x="741.5" y="255" as="sourcePoint" />
            <mxPoint x="631.5" y="285" as="targetPoint" />
          </mxGeometry>
        </mxCell>
        <mxCell id="vLfpw1LvQMj7YOOkY1lj-34" value="" style="endArrow=none;html=1;rounded=0;entryX=1;entryY=1;entryDx=0;entryDy=0;" edge="1" parent="1" target="vLfpw1LvQMj7YOOkY1lj-33">
          <mxGeometry width="50" height="50" relative="1" as="geometry">
            <mxPoint x="741.5" y="255" as="sourcePoint" />
            <mxPoint x="626.5" y="232" as="targetPoint" />
          </mxGeometry>
        </mxCell>
        <mxCell id="vLfpw1LvQMj7YOOkY1lj-33" value="&lt;u&gt;E-F&lt;/u&gt;" style="rhombus;whiteSpace=wrap;html=1;" vertex="1" parent="1">
          <mxGeometry x="711.5" y="220" width="60" height="60" as="geometry" />
        </mxCell>
        <mxCell id="vLfpw1LvQMj7YOOkY1lj-35" value="" style="endArrow=none;html=1;rounded=0;entryX=0.5;entryY=1;entryDx=0;entryDy=0;exitX=0.5;exitY=0;exitDx=0;exitDy=0;" edge="1" parent="1" source="vLfpw1LvQMj7YOOkY1lj-38" target="vLfpw1LvQMj7YOOkY1lj-29">
          <mxGeometry width="50" height="50" relative="1" as="geometry">
            <mxPoint x="511.5" y="295" as="sourcePoint" />
            <mxPoint x="431.5" y="355" as="targetPoint" />
          </mxGeometry>
        </mxCell>
        <mxCell id="vLfpw1LvQMj7YOOkY1lj-36" value="" style="endArrow=none;html=1;rounded=0;entryX=0.5;entryY=1;entryDx=0;entryDy=0;" edge="1" parent="1" target="vLfpw1LvQMj7YOOkY1lj-29">
          <mxGeometry width="50" height="50" relative="1" as="geometry">
            <mxPoint x="591.5" y="295" as="sourcePoint" />
            <mxPoint x="431.5" y="355" as="targetPoint" />
          </mxGeometry>
        </mxCell>
        <mxCell id="vLfpw1LvQMj7YOOkY1lj-37" value="" style="endArrow=none;html=1;rounded=0;entryX=0.5;entryY=1;entryDx=0;entryDy=0;" edge="1" parent="1" target="vLfpw1LvQMj7YOOkY1lj-29">
          <mxGeometry width="50" height="50" relative="1" as="geometry">
            <mxPoint x="671.5" y="295" as="sourcePoint" />
            <mxPoint x="431.5" y="355" as="targetPoint" />
          </mxGeometry>
        </mxCell>
        <mxCell id="vLfpw1LvQMj7YOOkY1lj-38" value="Nev" style="ellipse;whiteSpace=wrap;html=1;" vertex="1" parent="1">
          <mxGeometry x="464" y="277.5" width="70" height="30" as="geometry" />
        </mxCell>
        <mxCell id="vLfpw1LvQMj7YOOkY1lj-39" value="Eletkor" style="ellipse;whiteSpace=wrap;html=1;" vertex="1" parent="1">
          <mxGeometry x="559" y="277.5" width="70" height="30" as="geometry" />
        </mxCell>
        <mxCell id="vLfpw1LvQMj7YOOkY1lj-41" value="Vegzettseg" style="ellipse;shape=doubleEllipse;margin=3;whiteSpace=wrap;html=1;align=center;" vertex="1" parent="1">
          <mxGeometry x="1027.5" y="277.5" width="75" height="30" as="geometry" />
        </mxCell>
        <mxCell id="vLfpw1LvQMj7YOOkY1lj-42" value="" style="rounded=0;whiteSpace=wrap;html=1;" vertex="1" parent="1">
          <mxGeometry x="579" y="337.5" width="30" height="40" as="geometry" />
        </mxCell>
        <mxCell id="vLfpw1LvQMj7YOOkY1lj-43" value="" style="rounded=0;whiteSpace=wrap;html=1;" vertex="1" parent="1">
          <mxGeometry x="484" y="337.5" width="30" height="40" as="geometry" />
        </mxCell>
        <mxCell id="vLfpw1LvQMj7YOOkY1lj-44" value="" style="endArrow=none;html=1;rounded=0;entryX=0.5;entryY=1;entryDx=0;entryDy=0;" edge="1" parent="1">
          <mxGeometry width="50" height="50" relative="1" as="geometry">
            <mxPoint x="498.5" y="337.5" as="sourcePoint" />
            <mxPoint x="498.5" y="307.5" as="targetPoint" />
          </mxGeometry>
        </mxCell>
        <mxCell id="vLfpw1LvQMj7YOOkY1lj-45" value="" style="endArrow=none;html=1;rounded=0;entryX=0.5;entryY=1;entryDx=0;entryDy=0;" edge="1" parent="1" source="vLfpw1LvQMj7YOOkY1lj-60">
          <mxGeometry width="50" height="50" relative="1" as="geometry">
            <mxPoint x="681" y="337.5" as="sourcePoint" />
            <mxPoint x="681" y="307.5" as="targetPoint" />
          </mxGeometry>
        </mxCell>
        <mxCell id="vLfpw1LvQMj7YOOkY1lj-46" value="" style="endArrow=none;html=1;rounded=0;entryX=0.5;entryY=1;entryDx=0;entryDy=0;" edge="1" parent="1">
          <mxGeometry width="50" height="50" relative="1" as="geometry">
            <mxPoint x="593.5" y="337.5" as="sourcePoint" />
            <mxPoint x="593.5" y="307.5" as="targetPoint" />
          </mxGeometry>
        </mxCell>
        <mxCell id="vLfpw1LvQMj7YOOkY1lj-47" value="" style="rounded=0;whiteSpace=wrap;html=1;" vertex="1" parent="1">
          <mxGeometry x="666.5" y="337.5" width="30" height="40" as="geometry" />
        </mxCell>
        <mxCell id="vLfpw1LvQMj7YOOkY1lj-54" value="Szakacs" style="ellipse;shape=doubleEllipse;margin=3;whiteSpace=wrap;html=1;align=center;" vertex="1" parent="1">
          <mxGeometry x="940" y="197.5" width="100" height="40" as="geometry" />
        </mxCell>
        <mxCell id="vLfpw1LvQMj7YOOkY1lj-55" value="&lt;u&gt;E-SZ&lt;/u&gt;" style="rhombus;whiteSpace=wrap;html=1;" vertex="1" parent="1">
          <mxGeometry x="1120" y="220" width="60" height="60" as="geometry" />
        </mxCell>
        <mxCell id="vLfpw1LvQMj7YOOkY1lj-56" value="" style="endArrow=none;html=1;rounded=0;entryX=1;entryY=0.5;entryDx=0;entryDy=0;exitX=0;exitY=0.5;exitDx=0;exitDy=0;" edge="1" parent="1" source="vLfpw1LvQMj7YOOkY1lj-55" target="vLfpw1LvQMj7YOOkY1lj-54">
          <mxGeometry width="50" height="50" relative="1" as="geometry">
            <mxPoint x="1000" y="307.5" as="sourcePoint" />
            <mxPoint x="1050" y="257.5" as="targetPoint" />
          </mxGeometry>
        </mxCell>
        <mxCell id="vLfpw1LvQMj7YOOkY1lj-57" value="&lt;u&gt;Szkod&lt;/u&gt;" style="rhombus;whiteSpace=wrap;html=1;" vertex="1" parent="1">
          <mxGeometry x="800" y="220" width="60" height="60" as="geometry" />
        </mxCell>
        <mxCell id="vLfpw1LvQMj7YOOkY1lj-58" value="" style="endArrow=none;html=1;rounded=0;entryX=1;entryY=0.5;entryDx=0;entryDy=0;exitX=0;exitY=0.5;exitDx=0;exitDy=0;" edge="1" parent="1" source="vLfpw1LvQMj7YOOkY1lj-54" target="vLfpw1LvQMj7YOOkY1lj-57">
          <mxGeometry width="50" height="50" relative="1" as="geometry">
            <mxPoint x="1130" y="267.25" as="sourcePoint" />
            <mxPoint x="1050" y="227.25" as="targetPoint" />
          </mxGeometry>
        </mxCell>
        <mxCell id="vLfpw1LvQMj7YOOkY1lj-61" value="Reszleg" style="ellipse;whiteSpace=wrap;html=1;" vertex="1" parent="1">
          <mxGeometry x="952.5" y="277.5" width="70" height="30" as="geometry" />
        </mxCell>
        <mxCell id="vLfpw1LvQMj7YOOkY1lj-62" value="Nev" style="ellipse;whiteSpace=wrap;html=1;" vertex="1" parent="1">
          <mxGeometry x="877.5" y="277.5" width="70" height="30" as="geometry" />
        </mxCell>
        <mxCell id="vLfpw1LvQMj7YOOkY1lj-64" value="" style="endArrow=none;html=1;rounded=0;entryX=0;entryY=1;entryDx=0;entryDy=0;exitX=0.5;exitY=0;exitDx=0;exitDy=0;" edge="1" parent="1" source="vLfpw1LvQMj7YOOkY1lj-62" target="vLfpw1LvQMj7YOOkY1lj-54">
          <mxGeometry width="50" height="50" relative="1" as="geometry">
            <mxPoint x="930" y="306.25" as="sourcePoint" />
            <mxPoint x="980" y="256.25" as="targetPoint" />
          </mxGeometry>
        </mxCell>
        <mxCell id="vLfpw1LvQMj7YOOkY1lj-65" value="" style="endArrow=none;html=1;rounded=0;entryX=0.5;entryY=1;entryDx=0;entryDy=0;exitX=0.5;exitY=0;exitDx=0;exitDy=0;" edge="1" parent="1" source="vLfpw1LvQMj7YOOkY1lj-61" target="vLfpw1LvQMj7YOOkY1lj-54">
          <mxGeometry width="50" height="50" relative="1" as="geometry">
            <mxPoint x="925" y="296.25" as="sourcePoint" />
            <mxPoint x="965" y="241.25" as="targetPoint" />
          </mxGeometry>
        </mxCell>
        <mxCell id="vLfpw1LvQMj7YOOkY1lj-66" value="" style="endArrow=none;html=1;rounded=0;entryX=1;entryY=1;entryDx=0;entryDy=0;exitX=0.5;exitY=0;exitDx=0;exitDy=0;" edge="1" parent="1" source="vLfpw1LvQMj7YOOkY1lj-41" target="vLfpw1LvQMj7YOOkY1lj-54">
          <mxGeometry width="50" height="50" relative="1" as="geometry">
            <mxPoint x="935" y="306.25" as="sourcePoint" />
            <mxPoint x="975" y="251.25" as="targetPoint" />
          </mxGeometry>
        </mxCell>
        <mxCell id="vLfpw1LvQMj7YOOkY1lj-67" value="" style="rounded=0;whiteSpace=wrap;html=1;" vertex="1" parent="1">
          <mxGeometry x="1050" y="335" width="30" height="40" as="geometry" />
        </mxCell>
        <mxCell id="vLfpw1LvQMj7YOOkY1lj-68" value="" style="rounded=0;whiteSpace=wrap;html=1;" vertex="1" parent="1">
          <mxGeometry x="972.5" y="335" width="30" height="40" as="geometry" />
        </mxCell>
        <mxCell id="vLfpw1LvQMj7YOOkY1lj-69" value="" style="rounded=0;whiteSpace=wrap;html=1;" vertex="1" parent="1">
          <mxGeometry x="897.5" y="335" width="30" height="40" as="geometry" />
        </mxCell>
        <mxCell id="vLfpw1LvQMj7YOOkY1lj-70" value="" style="endArrow=none;html=1;rounded=0;entryX=0.5;entryY=1;entryDx=0;entryDy=0;exitX=0.5;exitY=0;exitDx=0;exitDy=0;" edge="1" parent="1" source="vLfpw1LvQMj7YOOkY1lj-69" target="vLfpw1LvQMj7YOOkY1lj-62">
          <mxGeometry width="50" height="50" relative="1" as="geometry">
            <mxPoint x="922.5" y="287.5" as="sourcePoint" />
            <mxPoint x="962.5" y="232.5" as="targetPoint" />
          </mxGeometry>
        </mxCell>
        <mxCell id="vLfpw1LvQMj7YOOkY1lj-71" value="" style="endArrow=none;html=1;rounded=0;entryX=0.5;entryY=1;entryDx=0;entryDy=0;exitX=0.5;exitY=0;exitDx=0;exitDy=0;" edge="1" parent="1" source="vLfpw1LvQMj7YOOkY1lj-68" target="vLfpw1LvQMj7YOOkY1lj-61">
          <mxGeometry width="50" height="50" relative="1" as="geometry">
            <mxPoint x="922.5" y="345.5" as="sourcePoint" />
            <mxPoint x="922.5" y="317.5" as="targetPoint" />
          </mxGeometry>
        </mxCell>
        <mxCell id="vLfpw1LvQMj7YOOkY1lj-72" value="" style="endArrow=none;html=1;rounded=0;entryX=0.5;entryY=1;entryDx=0;entryDy=0;exitX=0.5;exitY=0;exitDx=0;exitDy=0;" edge="1" parent="1" source="vLfpw1LvQMj7YOOkY1lj-67" target="vLfpw1LvQMj7YOOkY1lj-41">
          <mxGeometry width="50" height="50" relative="1" as="geometry">
            <mxPoint x="932.5" y="355.5" as="sourcePoint" />
            <mxPoint x="932.5" y="327.5" as="targetPoint" />
          </mxGeometry>
        </mxCell>
        <mxCell id="vLfpw1LvQMj7YOOkY1lj-73" value="" style="endArrow=none;html=1;rounded=0;entryX=0.5;entryY=1;entryDx=0;entryDy=0;" edge="1" parent="1" target="vLfpw1LvQMj7YOOkY1lj-60">
          <mxGeometry width="50" height="50" relative="1" as="geometry">
            <mxPoint x="681" y="337.5" as="sourcePoint" />
            <mxPoint x="681" y="307.5" as="targetPoint" />
          </mxGeometry>
        </mxCell>
        <mxCell id="vLfpw1LvQMj7YOOkY1lj-60" value="Vegzettseg" style="ellipse;shape=doubleEllipse;margin=3;whiteSpace=wrap;html=1;align=center;" vertex="1" parent="1">
          <mxGeometry x="644" y="277.5" width="75" height="30" as="geometry" />
        </mxCell>
        <mxCell id="vLfpw1LvQMj7YOOkY1lj-74" value="G50NCO_vendeglatas" style="ellipse;whiteSpace=wrap;html=1;" vertex="1" parent="1">
          <mxGeometry x="1150" y="10" width="130" height="40" as="geometry" />
        </mxCell>
        <mxCell id="vLfpw1LvQMj7YOOkY1lj-75" value="Muszak" style="ellipse;shape=doubleEllipse;margin=3;whiteSpace=wrap;html=1;align=center;" vertex="1" parent="1">
          <mxGeometry x="1510" y="278.13" width="75" height="30" as="geometry" />
        </mxCell>
        <mxCell id="vLfpw1LvQMj7YOOkY1lj-76" value="Gy&lt;span style=&quot;background-color: initial;&quot;&gt;akornok&lt;/span&gt;" style="ellipse;shape=doubleEllipse;margin=3;whiteSpace=wrap;html=1;align=center;" vertex="1" parent="1">
          <mxGeometry x="1380" y="197.5" width="100" height="40" as="geometry" />
        </mxCell>
        <mxCell id="vLfpw1LvQMj7YOOkY1lj-77" value="&lt;u&gt;E-GY&lt;/u&gt;" style="rhombus;whiteSpace=wrap;html=1;" vertex="1" parent="1">
          <mxGeometry x="1562.5" y="220" width="60" height="60" as="geometry" />
        </mxCell>
        <mxCell id="vLfpw1LvQMj7YOOkY1lj-78" value="" style="endArrow=none;html=1;rounded=0;entryX=1;entryY=0.5;entryDx=0;entryDy=0;exitX=0;exitY=0.5;exitDx=0;exitDy=0;" edge="1" parent="1" source="vLfpw1LvQMj7YOOkY1lj-77" target="vLfpw1LvQMj7YOOkY1lj-76">
          <mxGeometry width="50" height="50" relative="1" as="geometry">
            <mxPoint x="1440" y="307.5" as="sourcePoint" />
            <mxPoint x="1490" y="257.5" as="targetPoint" />
          </mxGeometry>
        </mxCell>
        <mxCell id="vLfpw1LvQMj7YOOkY1lj-79" value="&lt;u&gt;Gykod&lt;/u&gt;" style="rhombus;whiteSpace=wrap;html=1;" vertex="1" parent="1">
          <mxGeometry x="1230" y="220" width="60" height="60" as="geometry" />
        </mxCell>
        <mxCell id="vLfpw1LvQMj7YOOkY1lj-80" value="" style="endArrow=none;html=1;rounded=0;entryX=1;entryY=0.5;entryDx=0;entryDy=0;exitX=0;exitY=0.5;exitDx=0;exitDy=0;" edge="1" parent="1" source="vLfpw1LvQMj7YOOkY1lj-76" target="vLfpw1LvQMj7YOOkY1lj-79">
          <mxGeometry width="50" height="50" relative="1" as="geometry">
            <mxPoint x="1570" y="267.25" as="sourcePoint" />
            <mxPoint x="1490" y="227.25" as="targetPoint" />
          </mxGeometry>
        </mxCell>
        <mxCell id="vLfpw1LvQMj7YOOkY1lj-81" value="Gyakorlat" style="ellipse;whiteSpace=wrap;html=1;" vertex="1" parent="1">
          <mxGeometry x="1395" y="276.88" width="70" height="30" as="geometry" />
        </mxCell>
        <mxCell id="vLfpw1LvQMj7YOOkY1lj-82" value="Nev" style="ellipse;whiteSpace=wrap;html=1;" vertex="1" parent="1">
          <mxGeometry x="1290" y="275.63" width="70" height="30" as="geometry" />
        </mxCell>
        <mxCell id="vLfpw1LvQMj7YOOkY1lj-83" value="" style="endArrow=none;html=1;rounded=0;entryX=0;entryY=1;entryDx=0;entryDy=0;exitX=0.5;exitY=0;exitDx=0;exitDy=0;" edge="1" parent="1" source="vLfpw1LvQMj7YOOkY1lj-82" target="vLfpw1LvQMj7YOOkY1lj-76">
          <mxGeometry width="50" height="50" relative="1" as="geometry">
            <mxPoint x="1370" y="306.25" as="sourcePoint" />
            <mxPoint x="1420" y="256.25" as="targetPoint" />
          </mxGeometry>
        </mxCell>
        <mxCell id="vLfpw1LvQMj7YOOkY1lj-84" value="" style="endArrow=none;html=1;rounded=0;entryX=0.5;entryY=1;entryDx=0;entryDy=0;exitX=0.5;exitY=0;exitDx=0;exitDy=0;" edge="1" parent="1" source="vLfpw1LvQMj7YOOkY1lj-81" target="vLfpw1LvQMj7YOOkY1lj-76">
          <mxGeometry width="50" height="50" relative="1" as="geometry">
            <mxPoint x="1365" y="296.25" as="sourcePoint" />
            <mxPoint x="1405" y="241.25" as="targetPoint" />
          </mxGeometry>
        </mxCell>
        <mxCell id="vLfpw1LvQMj7YOOkY1lj-85" value="" style="endArrow=none;html=1;rounded=0;entryX=1;entryY=1;entryDx=0;entryDy=0;exitX=0.5;exitY=0;exitDx=0;exitDy=0;" edge="1" parent="1" source="vLfpw1LvQMj7YOOkY1lj-75" target="vLfpw1LvQMj7YOOkY1lj-76">
          <mxGeometry width="50" height="50" relative="1" as="geometry">
            <mxPoint x="1375" y="306.25" as="sourcePoint" />
            <mxPoint x="1415" y="251.25" as="targetPoint" />
          </mxGeometry>
        </mxCell>
        <mxCell id="vLfpw1LvQMj7YOOkY1lj-86" value="" style="rounded=0;whiteSpace=wrap;html=1;" vertex="1" parent="1">
          <mxGeometry x="1532.5" y="334.38" width="30" height="40" as="geometry" />
        </mxCell>
        <mxCell id="vLfpw1LvQMj7YOOkY1lj-88" value="" style="rounded=0;whiteSpace=wrap;html=1;" vertex="1" parent="1">
          <mxGeometry x="1310" y="334.38" width="30" height="40" as="geometry" />
        </mxCell>
        <mxCell id="vLfpw1LvQMj7YOOkY1lj-89" value="" style="endArrow=none;html=1;rounded=0;entryX=0.5;entryY=1;entryDx=0;entryDy=0;exitX=0.5;exitY=0;exitDx=0;exitDy=0;" edge="1" parent="1" source="vLfpw1LvQMj7YOOkY1lj-88" target="vLfpw1LvQMj7YOOkY1lj-82">
          <mxGeometry width="50" height="50" relative="1" as="geometry">
            <mxPoint x="1365" y="286.88" as="sourcePoint" />
            <mxPoint x="1405" y="231.88" as="targetPoint" />
          </mxGeometry>
        </mxCell>
        <mxCell id="vLfpw1LvQMj7YOOkY1lj-90" value="" style="endArrow=none;html=1;rounded=0;entryX=0.5;entryY=1;entryDx=0;entryDy=0;exitX=0.5;exitY=0;exitDx=0;exitDy=0;" edge="1" parent="1" source="vLfpw1LvQMj7YOOkY1lj-92" target="vLfpw1LvQMj7YOOkY1lj-81">
          <mxGeometry width="50" height="50" relative="1" as="geometry">
            <mxPoint x="1430" y="334.38" as="sourcePoint" />
            <mxPoint x="1365" y="316.88" as="targetPoint" />
          </mxGeometry>
        </mxCell>
        <mxCell id="vLfpw1LvQMj7YOOkY1lj-91" value="" style="endArrow=none;html=1;rounded=0;entryX=0.5;entryY=1;entryDx=0;entryDy=0;exitX=0.5;exitY=0;exitDx=0;exitDy=0;" edge="1" parent="1" source="vLfpw1LvQMj7YOOkY1lj-86" target="vLfpw1LvQMj7YOOkY1lj-75">
          <mxGeometry width="50" height="50" relative="1" as="geometry">
            <mxPoint x="1375" y="354.88" as="sourcePoint" />
            <mxPoint x="1375" y="326.88" as="targetPoint" />
          </mxGeometry>
        </mxCell>
        <mxCell id="vLfpw1LvQMj7YOOkY1lj-92" value="Kezdete" style="ellipse;whiteSpace=wrap;html=1;" vertex="1" parent="1">
          <mxGeometry x="1350" y="328.13" width="70" height="30" as="geometry" />
        </mxCell>
        <mxCell id="vLfpw1LvQMj7YOOkY1lj-93" value="Idotartama" style="ellipse;whiteSpace=wrap;html=1;" vertex="1" parent="1">
          <mxGeometry x="1440" y="328.13" width="70" height="30" as="geometry" />
        </mxCell>
        <mxCell id="vLfpw1LvQMj7YOOkY1lj-94" value="" style="endArrow=none;html=1;rounded=0;exitX=0.5;exitY=0;exitDx=0;exitDy=0;entryX=0.5;entryY=1;entryDx=0;entryDy=0;" edge="1" parent="1" source="vLfpw1LvQMj7YOOkY1lj-93" target="vLfpw1LvQMj7YOOkY1lj-81">
          <mxGeometry width="50" height="50" relative="1" as="geometry">
            <mxPoint x="1395" y="338.63" as="sourcePoint" />
            <mxPoint x="1430" y="310.63" as="targetPoint" />
          </mxGeometry>
        </mxCell>
        <mxCell id="vLfpw1LvQMj7YOOkY1lj-97" value="" style="rounded=0;whiteSpace=wrap;html=1;" vertex="1" parent="1">
          <mxGeometry x="1370" y="385.63" width="30" height="40" as="geometry" />
        </mxCell>
        <mxCell id="vLfpw1LvQMj7YOOkY1lj-98" value="" style="endArrow=none;html=1;rounded=0;entryX=0.5;entryY=1;entryDx=0;entryDy=0;exitX=0.5;exitY=0;exitDx=0;exitDy=0;" edge="1" parent="1" source="vLfpw1LvQMj7YOOkY1lj-97" target="vLfpw1LvQMj7YOOkY1lj-92">
          <mxGeometry width="50" height="50" relative="1" as="geometry">
            <mxPoint x="1425" y="341.88" as="sourcePoint" />
            <mxPoint x="1385" y="360.63" as="targetPoint" />
          </mxGeometry>
        </mxCell>
        <mxCell id="vLfpw1LvQMj7YOOkY1lj-100" value="" style="rounded=0;whiteSpace=wrap;html=1;" vertex="1" parent="1">
          <mxGeometry x="1460" y="386.88" width="30" height="40" as="geometry" />
        </mxCell>
        <mxCell id="vLfpw1LvQMj7YOOkY1lj-101" value="" style="endArrow=none;html=1;rounded=0;entryX=0.5;entryY=1;entryDx=0;entryDy=0;exitX=0.5;exitY=0;exitDx=0;exitDy=0;" edge="1" parent="1" source="vLfpw1LvQMj7YOOkY1lj-100">
          <mxGeometry width="50" height="50" relative="1" as="geometry">
            <mxPoint x="1515" y="339.38" as="sourcePoint" />
            <mxPoint x="1475" y="358.13" as="targetPoint" />
          </mxGeometry>
        </mxCell>
        <mxCell id="vLfpw1LvQMj7YOOkY1lj-104" value="Rendeles" style="ellipse;shape=doubleEllipse;margin=3;whiteSpace=wrap;html=1;align=center;" vertex="1" parent="1">
          <mxGeometry x="1804" y="199.38" width="100" height="40" as="geometry" />
        </mxCell>
        <mxCell id="vLfpw1LvQMj7YOOkY1lj-105" value="&lt;u&gt;V-R&lt;/u&gt;" style="rhombus;whiteSpace=wrap;html=1;" vertex="1" parent="1">
          <mxGeometry x="1984" y="229.38" width="60" height="60" as="geometry" />
        </mxCell>
        <mxCell id="vLfpw1LvQMj7YOOkY1lj-106" value="" style="endArrow=none;html=1;rounded=0;entryX=1;entryY=0.5;entryDx=0;entryDy=0;exitX=0;exitY=0.5;exitDx=0;exitDy=0;" edge="1" parent="1" source="vLfpw1LvQMj7YOOkY1lj-105" target="vLfpw1LvQMj7YOOkY1lj-104">
          <mxGeometry width="50" height="50" relative="1" as="geometry">
            <mxPoint x="1864" y="309.38" as="sourcePoint" />
            <mxPoint x="1914" y="259.38" as="targetPoint" />
          </mxGeometry>
        </mxCell>
        <mxCell id="vLfpw1LvQMj7YOOkY1lj-107" value="&lt;u&gt;E-R&lt;/u&gt;" style="rhombus;whiteSpace=wrap;html=1;" vertex="1" parent="1">
          <mxGeometry x="1654" y="229.38" width="60" height="60" as="geometry" />
        </mxCell>
        <mxCell id="vLfpw1LvQMj7YOOkY1lj-108" value="" style="endArrow=none;html=1;rounded=0;entryX=1;entryY=0.5;entryDx=0;entryDy=0;exitX=0;exitY=0.5;exitDx=0;exitDy=0;" edge="1" parent="1" source="vLfpw1LvQMj7YOOkY1lj-104" target="vLfpw1LvQMj7YOOkY1lj-107">
          <mxGeometry width="50" height="50" relative="1" as="geometry">
            <mxPoint x="1994" y="269.13" as="sourcePoint" />
            <mxPoint x="1914" y="229.13" as="targetPoint" />
          </mxGeometry>
        </mxCell>
        <mxCell id="vLfpw1LvQMj7YOOkY1lj-110" value="Osszeg" style="ellipse;whiteSpace=wrap;html=1;" vertex="1" parent="1">
          <mxGeometry x="1742.75" y="277.5" width="70" height="30" as="geometry" />
        </mxCell>
        <mxCell id="vLfpw1LvQMj7YOOkY1lj-111" value="" style="endArrow=none;html=1;rounded=0;entryX=0.5;entryY=1;entryDx=0;entryDy=0;exitX=0.5;exitY=0;exitDx=0;exitDy=0;" edge="1" parent="1" source="vLfpw1LvQMj7YOOkY1lj-110" target="vLfpw1LvQMj7YOOkY1lj-104">
          <mxGeometry width="50" height="50" relative="1" as="geometry">
            <mxPoint x="1794" y="308.13" as="sourcePoint" />
            <mxPoint x="1844" y="258.13" as="targetPoint" />
          </mxGeometry>
        </mxCell>
        <mxCell id="vLfpw1LvQMj7YOOkY1lj-113" value="" style="endArrow=none;html=1;rounded=0;entryX=0.5;entryY=1;entryDx=0;entryDy=0;exitX=0.5;exitY=0;exitDx=0;exitDy=0;" edge="1" parent="1" source="vLfpw1LvQMj7YOOkY1lj-120" target="vLfpw1LvQMj7YOOkY1lj-104">
          <mxGeometry width="50" height="50" relative="1" as="geometry">
            <mxPoint x="1931.5" y="288.13" as="sourcePoint" />
            <mxPoint x="1839" y="253.13" as="targetPoint" />
          </mxGeometry>
        </mxCell>
        <mxCell id="vLfpw1LvQMj7YOOkY1lj-114" value="" style="rounded=0;whiteSpace=wrap;html=1;" vertex="1" parent="1">
          <mxGeometry x="1915.25" y="335" width="30" height="40" as="geometry" />
        </mxCell>
        <mxCell id="vLfpw1LvQMj7YOOkY1lj-116" value="" style="rounded=0;whiteSpace=wrap;html=1;" vertex="1" parent="1">
          <mxGeometry x="1762.75" y="335" width="30" height="40" as="geometry" />
        </mxCell>
        <mxCell id="vLfpw1LvQMj7YOOkY1lj-117" value="" style="endArrow=none;html=1;rounded=0;entryX=0.5;entryY=1;entryDx=0;entryDy=0;exitX=0.5;exitY=0;exitDx=0;exitDy=0;" edge="1" parent="1" source="vLfpw1LvQMj7YOOkY1lj-116" target="vLfpw1LvQMj7YOOkY1lj-110">
          <mxGeometry width="50" height="50" relative="1" as="geometry">
            <mxPoint x="1787.75" y="287.5" as="sourcePoint" />
            <mxPoint x="1827.75" y="232.5" as="targetPoint" />
          </mxGeometry>
        </mxCell>
        <mxCell id="vLfpw1LvQMj7YOOkY1lj-119" value="" style="endArrow=none;html=1;rounded=0;entryX=0.5;entryY=1;entryDx=0;entryDy=0;exitX=0.5;exitY=0;exitDx=0;exitDy=0;" edge="1" parent="1" source="vLfpw1LvQMj7YOOkY1lj-114">
          <mxGeometry width="50" height="50" relative="1" as="geometry">
            <mxPoint x="1797.75" y="355.5" as="sourcePoint" />
            <mxPoint x="1930.25" y="307.5" as="targetPoint" />
          </mxGeometry>
        </mxCell>
        <mxCell id="vLfpw1LvQMj7YOOkY1lj-120" value="Etel" style="ellipse;whiteSpace=wrap;html=1;" vertex="1" parent="1">
          <mxGeometry x="1895.25" y="278.75" width="70" height="30" as="geometry" />
        </mxCell>
        <mxCell id="vLfpw1LvQMj7YOOkY1lj-122" value="Vendeg" style="ellipse;shape=doubleEllipse;margin=3;whiteSpace=wrap;html=1;align=center;" vertex="1" parent="1">
          <mxGeometry x="2218" y="199.38" width="100" height="40" as="geometry" />
        </mxCell>
        <mxCell id="vLfpw1LvQMj7YOOkY1lj-125" value="&lt;u&gt;Vkod&lt;/u&gt;" style="rhombus;whiteSpace=wrap;html=1;" vertex="1" parent="1">
          <mxGeometry x="2068" y="229.38" width="60" height="60" as="geometry" />
        </mxCell>
        <mxCell id="vLfpw1LvQMj7YOOkY1lj-126" value="" style="endArrow=none;html=1;rounded=0;entryX=1;entryY=0.5;entryDx=0;entryDy=0;exitX=0;exitY=0.5;exitDx=0;exitDy=0;" edge="1" parent="1" source="vLfpw1LvQMj7YOOkY1lj-122" target="vLfpw1LvQMj7YOOkY1lj-125">
          <mxGeometry width="50" height="50" relative="1" as="geometry">
            <mxPoint x="2408" y="269.13" as="sourcePoint" />
            <mxPoint x="2328" y="229.13" as="targetPoint" />
          </mxGeometry>
        </mxCell>
        <mxCell id="vLfpw1LvQMj7YOOkY1lj-127" value="Cim" style="ellipse;whiteSpace=wrap;html=1;" vertex="1" parent="1">
          <mxGeometry x="2305" y="281.88" width="70" height="30" as="geometry" />
        </mxCell>
        <mxCell id="vLfpw1LvQMj7YOOkY1lj-128" value="Nev" style="ellipse;whiteSpace=wrap;html=1;" vertex="1" parent="1">
          <mxGeometry x="2160" y="277.5" width="70" height="30" as="geometry" />
        </mxCell>
        <mxCell id="vLfpw1LvQMj7YOOkY1lj-129" value="" style="endArrow=none;html=1;rounded=0;entryX=0;entryY=1;entryDx=0;entryDy=0;exitX=0.5;exitY=0;exitDx=0;exitDy=0;" edge="1" parent="1" source="vLfpw1LvQMj7YOOkY1lj-128" target="vLfpw1LvQMj7YOOkY1lj-122">
          <mxGeometry width="50" height="50" relative="1" as="geometry">
            <mxPoint x="2208" y="308.13" as="sourcePoint" />
            <mxPoint x="2258" y="258.13" as="targetPoint" />
          </mxGeometry>
        </mxCell>
        <mxCell id="vLfpw1LvQMj7YOOkY1lj-130" value="" style="endArrow=none;html=1;rounded=0;entryX=1;entryY=1;entryDx=0;entryDy=0;exitX=0.5;exitY=0;exitDx=0;exitDy=0;" edge="1" parent="1" source="vLfpw1LvQMj7YOOkY1lj-127" target="vLfpw1LvQMj7YOOkY1lj-122">
          <mxGeometry width="50" height="50" relative="1" as="geometry">
            <mxPoint x="2203" y="298.13" as="sourcePoint" />
            <mxPoint x="2243" y="243.13" as="targetPoint" />
          </mxGeometry>
        </mxCell>
        <mxCell id="vLfpw1LvQMj7YOOkY1lj-133" value="" style="rounded=0;whiteSpace=wrap;html=1;" vertex="1" parent="1">
          <mxGeometry x="2180" y="335" width="30" height="40" as="geometry" />
        </mxCell>
        <mxCell id="vLfpw1LvQMj7YOOkY1lj-134" value="" style="endArrow=none;html=1;rounded=0;entryX=0.5;entryY=1;entryDx=0;entryDy=0;exitX=0.5;exitY=0;exitDx=0;exitDy=0;" edge="1" parent="1" source="vLfpw1LvQMj7YOOkY1lj-133" target="vLfpw1LvQMj7YOOkY1lj-128">
          <mxGeometry width="50" height="50" relative="1" as="geometry">
            <mxPoint x="2203" y="310.63" as="sourcePoint" />
            <mxPoint x="2243" y="255.63" as="targetPoint" />
          </mxGeometry>
        </mxCell>
        <mxCell id="vLfpw1LvQMj7YOOkY1lj-135" value="" style="endArrow=none;html=1;rounded=0;entryX=0;entryY=1;entryDx=0;entryDy=0;exitX=0.5;exitY=0;exitDx=0;exitDy=0;" edge="1" parent="1" target="vLfpw1LvQMj7YOOkY1lj-127">
          <mxGeometry width="50" height="50" relative="1" as="geometry">
            <mxPoint x="2267" y="331.25" as="sourcePoint" />
            <mxPoint x="2275" y="321.88" as="targetPoint" />
          </mxGeometry>
        </mxCell>
        <mxCell id="vLfpw1LvQMj7YOOkY1lj-137" value="Varos" style="ellipse;whiteSpace=wrap;html=1;" vertex="1" parent="1">
          <mxGeometry x="2230" y="331.25" width="70" height="30" as="geometry" />
        </mxCell>
        <mxCell id="vLfpw1LvQMj7YOOkY1lj-138" value="Utca" style="ellipse;whiteSpace=wrap;html=1;" vertex="1" parent="1">
          <mxGeometry x="2305" y="331.25" width="70" height="30" as="geometry" />
        </mxCell>
        <mxCell id="vLfpw1LvQMj7YOOkY1lj-139" value="" style="endArrow=none;html=1;rounded=0;exitX=0.5;exitY=0;exitDx=0;exitDy=0;entryX=0.5;entryY=1;entryDx=0;entryDy=0;" edge="1" parent="1" source="vLfpw1LvQMj7YOOkY1lj-138" target="vLfpw1LvQMj7YOOkY1lj-127">
          <mxGeometry width="50" height="50" relative="1" as="geometry">
            <mxPoint x="2305" y="343.63" as="sourcePoint" />
            <mxPoint x="2340" y="315.63" as="targetPoint" />
          </mxGeometry>
        </mxCell>
        <mxCell id="vLfpw1LvQMj7YOOkY1lj-140" value="" style="rounded=0;whiteSpace=wrap;html=1;" vertex="1" parent="1">
          <mxGeometry x="2252" y="388.75" width="30" height="40" as="geometry" />
        </mxCell>
        <mxCell id="vLfpw1LvQMj7YOOkY1lj-141" value="" style="endArrow=none;html=1;rounded=0;entryX=0.5;entryY=1;entryDx=0;entryDy=0;exitX=0.5;exitY=0;exitDx=0;exitDy=0;" edge="1" parent="1" source="vLfpw1LvQMj7YOOkY1lj-140">
          <mxGeometry width="50" height="50" relative="1" as="geometry">
            <mxPoint x="2335" y="346.88" as="sourcePoint" />
            <mxPoint x="2267" y="361.25" as="targetPoint" />
          </mxGeometry>
        </mxCell>
        <mxCell id="vLfpw1LvQMj7YOOkY1lj-142" value="" style="rounded=0;whiteSpace=wrap;html=1;" vertex="1" parent="1">
          <mxGeometry x="2325" y="390" width="30" height="40" as="geometry" />
        </mxCell>
        <mxCell id="vLfpw1LvQMj7YOOkY1lj-143" value="" style="endArrow=none;html=1;rounded=0;exitX=0.5;exitY=0;exitDx=0;exitDy=0;entryX=0.5;entryY=1;entryDx=0;entryDy=0;" edge="1" parent="1" source="vLfpw1LvQMj7YOOkY1lj-142" target="vLfpw1LvQMj7YOOkY1lj-138">
          <mxGeometry width="50" height="50" relative="1" as="geometry">
            <mxPoint x="2425" y="344.38" as="sourcePoint" />
            <mxPoint x="2412" y="362.75" as="targetPoint" />
          </mxGeometry>
        </mxCell>
        <mxCell id="vLfpw1LvQMj7YOOkY1lj-148" value="" style="rounded=0;whiteSpace=wrap;html=1;" vertex="1" parent="1">
          <mxGeometry x="2402" y="390" width="30" height="40" as="geometry" />
        </mxCell>
        <mxCell id="vLfpw1LvQMj7YOOkY1lj-149" value="" style="endArrow=none;html=1;rounded=0;exitX=0.5;exitY=0;exitDx=0;exitDy=0;entryX=0.5;entryY=1;entryDx=0;entryDy=0;" edge="1" parent="1" source="vLfpw1LvQMj7YOOkY1lj-148" target="vLfpw1LvQMj7YOOkY1lj-150">
          <mxGeometry width="50" height="50" relative="1" as="geometry">
            <mxPoint x="2490" y="343.88" as="sourcePoint" />
            <mxPoint x="2405" y="361.25" as="targetPoint" />
          </mxGeometry>
        </mxCell>
        <mxCell id="vLfpw1LvQMj7YOOkY1lj-150" value="Hazszam" style="ellipse;whiteSpace=wrap;html=1;" vertex="1" parent="1">
          <mxGeometry x="2382" y="331.25" width="70" height="30" as="geometry" />
        </mxCell>
        <mxCell id="vLfpw1LvQMj7YOOkY1lj-151" value="" style="endArrow=none;html=1;rounded=0;exitX=0.5;exitY=0;exitDx=0;exitDy=0;entryX=1;entryY=1;entryDx=0;entryDy=0;" edge="1" parent="1" source="vLfpw1LvQMj7YOOkY1lj-150" target="vLfpw1LvQMj7YOOkY1lj-127">
          <mxGeometry width="50" height="50" relative="1" as="geometry">
            <mxPoint x="2350" y="341.75" as="sourcePoint" />
            <mxPoint x="2350" y="321.75" as="targetPoint" />
          </mxGeometry>
        </mxCell>
        <mxCell id="ZdJH-8dIEAHLHrhyL5KZ-2" value="" style="endArrow=none;html=1;rounded=0;entryX=0.5;entryY=1;entryDx=0;entryDy=0;exitX=0.5;exitY=0;exitDx=0;exitDy=0;" edge="1" parent="1" source="vLfpw1LvQMj7YOOkY1lj-76" target="vLfpw1LvQMj7YOOkY1lj-74">
          <mxGeometry width="50" height="50" relative="1" as="geometry">
            <mxPoint x="1380" y="170" as="sourcePoint" />
            <mxPoint x="1430" y="120" as="targetPoint" />
          </mxGeometry>
        </mxCell>
        <mxCell id="ZdJH-8dIEAHLHrhyL5KZ-3" value="" style="endArrow=none;html=1;rounded=0;entryX=1;entryY=1;entryDx=0;entryDy=0;exitX=0.5;exitY=0;exitDx=0;exitDy=0;" edge="1" parent="1" source="vLfpw1LvQMj7YOOkY1lj-104" target="vLfpw1LvQMj7YOOkY1lj-74">
          <mxGeometry width="50" height="50" relative="1" as="geometry">
            <mxPoint x="1380" y="170" as="sourcePoint" />
            <mxPoint x="1430" y="120" as="targetPoint" />
          </mxGeometry>
        </mxCell>
        <mxCell id="ZdJH-8dIEAHLHrhyL5KZ-4" value="" style="endArrow=none;html=1;rounded=0;entryX=1;entryY=0.5;entryDx=0;entryDy=0;exitX=0.5;exitY=0;exitDx=0;exitDy=0;" edge="1" parent="1" source="vLfpw1LvQMj7YOOkY1lj-122" target="vLfpw1LvQMj7YOOkY1lj-74">
          <mxGeometry width="50" height="50" relative="1" as="geometry">
            <mxPoint x="1380" y="170" as="sourcePoint" />
            <mxPoint x="1430" y="120" as="targetPoint" />
          </mxGeometry>
        </mxCell>
        <mxCell id="ZdJH-8dIEAHLHrhyL5KZ-5" value="" style="endArrow=none;html=1;rounded=0;entryX=0.5;entryY=1;entryDx=0;entryDy=0;exitX=0.5;exitY=0;exitDx=0;exitDy=0;" edge="1" parent="1" source="vLfpw1LvQMj7YOOkY1lj-54" target="vLfpw1LvQMj7YOOkY1lj-74">
          <mxGeometry width="50" height="50" relative="1" as="geometry">
            <mxPoint x="1250" y="170" as="sourcePoint" />
            <mxPoint x="1300" y="120" as="targetPoint" />
          </mxGeometry>
        </mxCell>
        <mxCell id="ZdJH-8dIEAHLHrhyL5KZ-6" value="" style="endArrow=none;html=1;rounded=0;entryX=0;entryY=1;entryDx=0;entryDy=0;exitX=0.5;exitY=0;exitDx=0;exitDy=0;" edge="1" parent="1" source="vLfpw1LvQMj7YOOkY1lj-29" target="vLfpw1LvQMj7YOOkY1lj-74">
          <mxGeometry width="50" height="50" relative="1" as="geometry">
            <mxPoint x="1250" y="170" as="sourcePoint" />
            <mxPoint x="1300" y="120" as="targetPoint" />
          </mxGeometry>
        </mxCell>
        <mxCell id="ZdJH-8dIEAHLHrhyL5KZ-7" value="" style="endArrow=none;html=1;rounded=0;entryX=0;entryY=0.5;entryDx=0;entryDy=0;exitX=0.5;exitY=0;exitDx=0;exitDy=0;" edge="1" parent="1" source="vLfpw1LvQMj7YOOkY1lj-6" target="vLfpw1LvQMj7YOOkY1lj-74">
          <mxGeometry width="50" height="50" relative="1" as="geometry">
            <mxPoint x="440" y="170" as="sourcePoint" />
            <mxPoint x="490" y="120" as="targetPoint" />
          </mxGeometry>
        </mxCell>
        <mxCell id="ZdJH-8dIEAHLHrhyL5KZ-8" value="" style="endArrow=classic;html=1;rounded=0;entryX=0.5;entryY=1;entryDx=0;entryDy=0;dashed=1;exitX=0.5;exitY=1;exitDx=0;exitDy=0;" edge="1" parent="1" source="vLfpw1LvQMj7YOOkY1lj-105" target="vLfpw1LvQMj7YOOkY1lj-125">
          <mxGeometry width="50" height="50" relative="1" as="geometry">
            <mxPoint x="1940" y="550" as="sourcePoint" />
            <mxPoint x="2220" y="480" as="targetPoint" />
            <Array as="points">
              <mxPoint x="2014" y="470" />
              <mxPoint x="2098" y="470" />
            </Array>
          </mxGeometry>
        </mxCell>
        <mxCell id="ZdJH-8dIEAHLHrhyL5KZ-9" value="" style="endArrow=classic;html=1;rounded=0;exitX=0.5;exitY=1;exitDx=0;exitDy=0;dashed=1;" edge="1" parent="1" source="vLfpw1LvQMj7YOOkY1lj-107">
          <mxGeometry width="50" height="50" relative="1" as="geometry">
            <mxPoint x="1650" y="360" as="sourcePoint" />
            <mxPoint x="60" y="250" as="targetPoint" />
            <Array as="points">
              <mxPoint x="1684" y="600" />
              <mxPoint x="-100" y="610" />
              <mxPoint x="-100" y="250" />
            </Array>
          </mxGeometry>
        </mxCell>
        <mxCell id="ZdJH-8dIEAHLHrhyL5KZ-10" value="" style="endArrow=classic;html=1;rounded=0;exitX=0.5;exitY=1;exitDx=0;exitDy=0;dashed=1;" edge="1" parent="1" source="vLfpw1LvQMj7YOOkY1lj-55">
          <mxGeometry width="50" height="50" relative="1" as="geometry">
            <mxPoint x="1460" y="390" as="sourcePoint" />
            <mxPoint x="80" y="270" as="targetPoint" />
            <Array as="points">
              <mxPoint x="1150" y="480" />
              <mxPoint x="-30" y="480" />
              <mxPoint x="-30" y="270" />
            </Array>
          </mxGeometry>
        </mxCell>
        <mxCell id="ZdJH-8dIEAHLHrhyL5KZ-11" value="" style="endArrow=classic;html=1;rounded=0;exitX=0.5;exitY=1;exitDx=0;exitDy=0;dashed=1;" edge="1" parent="1" source="vLfpw1LvQMj7YOOkY1lj-77">
          <mxGeometry width="50" height="50" relative="1" as="geometry">
            <mxPoint x="1530" y="430" as="sourcePoint" />
            <mxPoint x="70" y="260" as="targetPoint" />
            <Array as="points">
              <mxPoint x="1593" y="550" />
              <mxPoint x="-70" y="560" />
              <mxPoint x="-70" y="260" />
            </Array>
          </mxGeometry>
        </mxCell>
        <mxCell id="ZdJH-8dIEAHLHrhyL5KZ-12" value="" style="endArrow=classic;html=1;rounded=0;exitX=0.5;exitY=1;exitDx=0;exitDy=0;entryX=0.277;entryY=0.951;entryDx=0;entryDy=0;entryPerimeter=0;dashed=1;" edge="1" parent="1" source="vLfpw1LvQMj7YOOkY1lj-33" target="vLfpw1LvQMj7YOOkY1lj-15">
          <mxGeometry width="50" height="50" relative="1" as="geometry">
            <mxPoint x="330" y="430" as="sourcePoint" />
            <mxPoint x="20" y="250" as="targetPoint" />
            <Array as="points">
              <mxPoint x="742" y="460" />
              <mxPoint x="20" y="460" />
              <mxPoint x="20" y="280" />
            </Array>
          </mxGeometry>
        </mxCell>
      </root>
    </mxGraphModel>
  </diagram>
</mxfile>
